<svg xmlns="http://www.w3.org/2000/svg" viewBox="0 0 2000 1800" width="2000" height="1800">
    <g transform="translate(960.0 167.0) rotate(0.0 463.5 756.5) scale(1.0046253950226067 1.0031280622589145)">
        <svg width="922.732" height="1508.282" viewBox="0 0 922.732 1508.282">
            <path d="M422.365 1368.305H94.592l4.159-68.607h327.8z" fill="#56b1f0" />
            <path d="m563.865 693.415-150 814.867h-40l150-814.867z" fill="#56b1f0" />
            <path d="m560.865 693.415 150 814.867h40l-150-814.867zm-314 0-150 814.867h-40l150-814.867z" fill="#56b1f0" />
            <path d="M771.232 816.367H40.105l150-814.867h731.127z" fill="#fff" />
            <path d="M791.127 884.974H0l10.037-68.607H801.23z" fill="#56b1f0" />
            <g fill="#25242e">
                <path d="M771.232 817.867H40.105a1.502 1.502 0 0 1-1.475-1.771l150-814.867A1.5 1.5 0 0 1 190.105 0h731.127a1.5 1.5 0 0 1 1.475 1.771l-150 814.867a1.5 1.5 0 0 1-1.475 1.229zm-729.326-3h728.077L919.431 3H191.354zm211.291 71.607h-92.426a1.5 1.5 0 1 1 0-3h92.426a1.5 1.5 0 0 1 0 3zm419.744 0H449.793a1.5 1.5 0 0 1 0-3h223.148a1.5 1.5 0 0 1 0 3zm-550.577 484.793a1.5 1.5 0 0 1-1.477-1.771l17.164-93.244a1.5 1.5 0 0 1 2.951.543l-17.164 93.244a1.5 1.5 0 0 1-1.474 1.228zm275.997 5.453a1.501 1.501 0 0 1-1.477-1.771l17.401-94.534c.15-.815.938-1.35 1.747-1.204.814.15 1.354.933 1.204 1.747l-17.401 94.534a1.503 1.503 0 0 1-1.474 1.228z" />
            </g>
        </svg>
    </g>
    <g transform="translate(98.0 257.0) rotate(0.0 553.5 712.0) scale(0.9992778479870013 0.9987375508486465)">
        <svg width="1107.8" height="1425.8" viewBox="0 0 1107.8 1425.8">
            <path d="M1003.5 86s-31.6 4.2-43.9 16.2c-17.6 17.2-52.5 84.6-52.5 84.6l121.8 55.3 23.5-30zM719.1 1380.3l-24.2-7.9-69.2-34.5-.3-.3 7-50.5s-61.2-183.1-135.7-2.7c1.1 12.1 2.4 24.7 3.7 37.7h.2c-19 59.2 4.8 73.7 48.8 75.8 27.3 1.3 74.1 2.3 130.7 2.6 15.4.1 28.2-1.9 38.1-4.3 8.4-1.9 8.9-13.3.9-15.9z" fill="#eda38c" />
            <path d="M523.4 544.2c-3.6 111.7-34.7 310.1-72.3 561.8-5.7 38.2-19.5 68.4-19.5 105.4 0 23 47.5 61.3 65.3 73l135.7 2.7s42-36.4 46.1-61.7c5.2-32.6 61.9-667.2 61.9-667.2s-213-145.8-217.2-14zm-32.2 763.9 146.6 2.9-5.3-23.9-135.7-2.7z" fill="#bbddfa" />
            <path d="M655.6 1332s9.5 12.4 20 14.4 35.2-3.3 52.9 8.2 23 35.6 0 58.3c-6.7 6.6-41.9 12.5-67.9 12.5-13 0-25.9-1.3-34-2.8-18.2-3.5-24.4-8.9-43.4-8.9-27.3 0-21.3 14.3-73.1 11.7-15-.7-21.4-9.6-21.4-21.4v-10c0-4.7 4.5-8.2 9-7 37.2 9.3 78.4-3.1 99.6-15.2z" fill="#f0e760" />
            <ellipse cx="665" cy="1381.7" fill="#fff" rx="12.6" ry="7" />
            <ellipse cx="712.2" cy="1381.8" fill="#fff" rx="12.6" ry="7" />
            <path d="M649.1 1407.8c-19.2 0-37.7-1.5-58.8-3.1-27.4-2.2-58.4-4.6-101.5-4.9-.8 0-1.5-.7-1.5-1.5s.7-1.5 1.5-1.5c43.2.3 74.3 2.7 101.8 4.9 23.5 1.9 43.8 3.5 65.3 3.1 31.9-.6 59.5-1.1 83.3-7.9.8-.2 1.6.2 1.9 1s-.2 1.6-1 1.9c-24.2 6.9-51.9 7.4-84.1 8h-6.9z" fill="#25242e" />
            <path d="M597.3 1357.6s19.4-22.3 31.8-35.4c12.8-13.5 36.8 4.6 22 16.7-11 9.1-40.1 29.4-40.1 29.4z" fill="#f0e760" />
            <path d="M611.1 1369.8c-.5 0-.9-.2-1.2-.6-.5-.7-.3-1.6.4-2.1.3-.2 29.1-20.4 40-29.3 3.1-2.6 4.5-5.6 4-8.6-.1-.8.4-1.6 1.2-1.7s1.6.4 1.7 1.2c.7 4.2-1.1 8.2-5 11.4-11 9-39.9 29.3-40.2 29.5-.3.1-.6.2-.9.2z" fill="#25242e" />
            <circle cx="597.3" cy="1371.7" fill="#f0e760" r="14.2" />
            <path d="M597.3 1387.4c-6.9 0-12.9-4.4-14.9-10.9-.2-.8.2-1.6 1-1.9.8-.2 1.6.2 1.9 1 1.7 5.3 6.5 8.8 12.1 8.8 7 0 12.7-5.7 12.7-12.7s-5.7-12.7-12.7-12.7c-1 0-2 .1-3 .3-.8.2-1.6-.3-1.8-1.1s.3-1.6 1.1-1.8c1.2-.3 2.4-.4 3.6-.4 8.6 0 15.7 7 15.7 15.7s-7 15.7-15.7 15.7z" fill="#25242e" />
            <path d="M597.3 1379.2c-4.1 0-7.4-3.3-7.4-7.4s3.3-7.4 7.4-7.4 7.4 3.3 7.4 7.4-3.3 7.4-7.4 7.4zm0-11.9c-2.4 0-4.4 2-4.4 4.4s2 4.4 4.4 4.4 4.4-2 4.4-4.4-1.9-4.4-4.4-4.4zm-40.6-80c-.3 0-.6-.1-.8-.2-18.5-12.2-35.9-52.9-35.9-75.6 0-22.6 5-42.4 10.4-63.4 3.4-13.4 6.9-27.2 9.2-42.2 3.3-22.1 6.6-43.8 9.8-65.1 33.1-220.5 59.3-394.7 62.6-496.5 0-.8.8-1.5 1.5-1.5.8 0 1.5.7 1.5 1.5-3.3 101.9-29.5 276.2-62.6 496.9-3.2 21.3-6.5 43-9.8 65.1-2.3 15.1-5.8 29.1-9.2 42.5-5.3 20.8-10.3 40.4-10.3 62.7 0 25.9 19.4 63.2 34.5 73.1.7.5.9 1.4.4 2.1-.4.3-.8.6-1.3.6z" fill="#25242e" />
            <path d="M773.1 463.2c17.4 15 66.4-53 66.4-130.3 0-37.6-78.1-13-78.1-13s-1.5 131.9 11.7 143.3z" fill="#fff" />
            <path d="M778.8 466.8c-3 0-5.2-1.2-6.7-2.4-5.9-5.1-9.6-30.2-11.3-77-1.3-34.1-.9-67.2-.9-67.5 0-.6.4-1.2 1-1.4 2.1-.7 52.6-16.3 72.3-1.9 5.2 3.8 7.8 9.3 7.8 16.3 0 64.2-33.5 122.1-55.6 132.3-2.5 1.1-4.7 1.6-6.6 1.6zm-15.9-145.9c-.4 37.3 1 132.2 11.2 141.1 2.5 2.2 5.9 2.3 10.1.4 10.7-4.9 24.3-22.4 34.7-44.5 12.4-26.5 19.2-56.7 19.2-85.1 0-6.1-2.1-10.7-6.5-13.9-17.1-12.5-61.4-.1-68.7 2z" fill="#25242e" />
            <path d="M61.8 1181.7c-14.7 34-30.1 72-46.5 114.6-11.9 26.3 128.5 5.1 128.5 5.1s9.5-12.6 24.3-32.4c48.8-64.9.4-228.7-106.3-87.3z" fill="#eda38c" />
            <path d="M62.2 1181c5.1 42.7 52.6 86.2 109.7 103.4l1-21.6-101.8-101.9z" fill="#bbddfa" />
            <path d="M597.7 471.5c-49.9-28.9-105.3-44.2-155.3-20.1-28.5 23.6-76.6 80.4-96.8 137.3-37.6 105.9-67.7 230.4-94.9 270.1-44.8 65.4-87.3 97.8-179.6 302.1 9.2 43.8 51.3 88.3 101.7 101.9 0 0 98 22.7 126.9-18.2 39.1-55.3 127.9-291.3 162.4-374.1 15.4-37 86.4-233.7 86.4-233.7s128-119.5 49.2-165.3z" fill="#bbddfa" />
            <path d="m468.1 441.7-26 6.8-11.5 13.6 48.4-10.6z" fill="#25242e" />
            <path d="M10.2 1309.5c-12.6 50-10.8 72.4-4 91.4 4.2 11.9 39 24.6 81.6 24.6 36 0 58.7-14 62.9-23.7 5-11.4 6.6-22.5 6.6-35s-3.5-30.7-14.8-59c-10.1-7.7-128.2-14.4-132.3 1.7z" fill="#f0e760" />
            <path d="M11.2 1294.8c73.8-15.4 115.5-7.2 137.6 4.3 2.5 1.3 4.1 4 4 6.8l-.1 6c-.1 3.6-2.6 6.6-6 7.3-19 3.9-71 6.3-136.8-.9-4.5-.5-7.6-4.8-6.6-9.2l2-8.6c.7-2.8 3-5.1 5.9-5.7z" fill="#f0e760" />
            <path d="M90.8 1324.4c-22.5 0-50.1-1.2-81-4.6-2.6-.3-4.9-1.6-6.4-3.8-1.5-2.1-2-4.8-1.5-7.3.2-.8 1-1.3 1.8-1.1s1.3 1 1.1 1.8c-.4 1.7 0 3.5 1 4.9s2.6 2.3 4.3 2.5c67.4 7.3 118.4 4.5 136.3.9 2.8-.6 4.8-3 4.8-5.9 0-.8.7-1.5 1.5-1.5s1.5.7 1.5 1.5c-.1 4.3-3 7.9-7.2 8.7-9.8 2.2-29.5 3.9-56.2 3.9z" fill="#25242e" />
            <ellipse cx="83.7" cy="1379.1" fill="#fff" rx="12.6" ry="7" />
            <ellipse cx="140.6" cy="1364.2" fill="#fff" rx="12.6" ry="7" transform="matrix(.7384 -.6743 .6743 .7384 -883.126 451.651)" />
            <ellipse cx="28" cy="1364.2" fill="#fff" rx="7" ry="12.6" transform="matrix(.6326 -.7745 .7745 .6326 -1046.2633 522.9362)" />
            <path d="M89.7 1401.8c-31.6 0-72.8-4.3-89.4-25-.5-.6-.4-1.6.2-2.1s1.6-.4 2.1.2c8.8 10.9 31 23.9 87.1 23.9 35.4 0 60-6.9 65.8-18.6.4-.7 1.3-1 2-.7s1 1.3.7 2c-6.4 12.9-31.4 20.3-68.5 20.3zm6.7-195.4c-.2 0-.4 0-.6-.1-.8-.3-1.1-1.2-.8-2 75-166 119.4-226.7 158.6-280.3 9-12.2 17.4-23.8 25.8-36.1 17.2-25.1 35.4-84 56.5-152.2 12.1-39 24.5-79.2 38.2-117.6 9.8-27.6 28-62.7 50-96.2 22.4-34.1 45-60.9 62.1-73.4.7-.5 1.6-.3 2.1.3.5.7.3 1.6-.3 2.1-34.3 25.2-90.4 110-111 168.1-13.6 38.4-26.1 78.6-38.1 117.5-21.2 68.4-39.5 127.5-56.9 153-8.5 12.3-16.9 23.9-25.9 36.2-39.1 53.5-83.5 114-158.3 279.7-.3.7-.9 1-1.4 1z" fill="#25242e" />
            <path d="m907.2 186.8-87.3 101.9L711 210.8c-74.1-25.9-113.3 74.3-78.4 106.3 33.3 29.6 58.4 53.1 125.2 98.3 36.5 24.6 113.8 40.5 171.6-37.9 59.7-81 99.6-135.4 99.6-135.4-4.2-52.3-59.4-80.1-121.8-55.3z" fill="#eda38c" />
            <path d="m680.4 386.8-237.9 64.6-38.6-118.6z" fill="#fff" />
            <path d="M442.5 452.9c-.6 0-1.2-.4-1.4-1l-38.5-118.6c-.3-.8.2-1.6 1-1.9s1.6.2 1.9 1l38.1 117.2L680 385.4c.8-.2 1.6.3 1.8 1.1s-.3 1.6-1.1 1.8l-238 64.6h-.2z" fill="#25242e" />
            <path d="M773.1 463.2 634.2 328c-21.5-56.2 9.2-124.1 76.8-117.2l108.8 77.8s-11.9 14.8-23 26.8c-36.5 39.7-37.5 133.4-23.7 147.8z" fill="#fff" />
            <path d="M711 210.8c-58.4-38.1-123.9-39.3-178.2-26.3-36.5 8.7-84.9 25.1-119.6 41.4-37.3 17.4-82.2 54.3-127.2 132.9l142.3 20.8 183.8-67.3z" fill="#fff" />
            <path d="M467.9 442.5c-9.6-52.3-20.3-112.8-27.8-149.7l168-53.8c29.9 15.5 57.1 49.3 61.7 56.5 7.6 11.9 9.6 47.5 10.6 91.4 0 0 8 14.9 16 29 22.1 38.8 44.1 71.2 44.1 130l-.3 261.3c.4 16.4-12.9 29.9-29.3 29.9h-280c-16.7 0-30.1-14-29.3-30.7z" fill="#25242e" />
            <path d="m478.3 449-94.8 15 23.4-42.7S272.7 378.4 238 445.4c-50.5 97.6-9.3 180.1 90.4 162.2 89-16 182.4-37.1 182.4-37.1 37.1-47.7 32.9-89.3-32.5-121.5z" fill="#eda38c" />
            <path d="M555.3 437.3c-37.7 5.9-77 11.7-77 11.7l32.6 121.6s76.5-17 96.2-22.1c19.6-5-24.3-115.5-51.8-111.2z" fill="#eda38c" />
            <path d="M563.4 472.4s49.8-9.1 71.9-17.2 19.5-34.2-17.4-29.5c-10 1.3-41.3 7.3-71.5 13.3z" fill="#eda38c" />
            <path d="M569.6 491.6s65.3-13.9 79.4-18.1c35-10.4 24.9-43.2-13.4-35-17.1 3.7-82 17.9-82 17.9-15.7 3.3 3.8 37 16 35.2z" fill="#eda38c" />
            <path d="M553.6 457.9c-.7 0-1.3-.5-1.5-1.2-.2-.8.3-1.6 1.1-1.8.6-.1 65-14.3 82-17.9 6.5-1.4 12.5-1.7 17.8-.9.8.1 1.4.9 1.3 1.7s-.9 1.4-1.7 1.3c-5-.7-10.6-.4-16.7.9-16.9 3.6-81.3 17.7-82 17.9h-.3z" fill="#25242e" />
            <path d="M562 481.4s74.3-16.7 92.3-18.1c38.6-3 30.9 27.4 9.7 34.7-20 6.9-82.9 19.7-82.9 19.7-23.1 3.7-49-28.2-19.1-36.3z" fill="#eda38c" />
            <path d="M562 482.9c-.7 0-1.3-.5-1.5-1.2-.2-.8.3-1.6 1.1-1.8 3-.7 74.6-16.7 92.5-18.1 7.3-.6 13.4 0 18.2 1.7.8.3 1.2 1.1.9 1.9s-1.1 1.2-1.9.9c-4.3-1.6-10-2.1-16.9-1.6-17.7 1.4-91.4 17.9-92.1 18-.1.2-.2.2-.3.2z" fill="#25242e" />
            <path d="M565.6 558.3s89-21.2 100.2-27.1c21.7-11.4 14.4-34.4-11.6-34.2-14.5.1-79.9 12.1-79.9 12.1-31.2 7.6-34 50.3-8.7 49.2z" fill="#eda38c" />
            <path d="M574.3 510.5c-.7 0-1.3-.5-1.5-1.2-.1-.8.4-1.6 1.2-1.7 2.7-.5 65.7-12 80.2-12.1 6-.1 11.2 1 15.5 3.3.7.4 1 1.3.7 2-.4.7-1.3 1-2 .7-3.9-2-8.8-3-14.1-2.9-14.2.1-79 11.9-79.7 12-.1-.1-.2-.1-.3-.1zm198.8-45.8c-.4 0-.8-.1-1-.4L633.2 329.1c-.6-.6-.6-1.5 0-2.1s1.5-.6 2.1 0l132.2 128.7c-4-12.3-5.3-33.9-2.9-57 3.7-36 15.1-66.7 31.1-84.1 9-9.8 18.8-21.7 21.9-25.5L710 212.2c-.7-.5-.8-1.4-.3-2.1s1.4-.8 2.1-.3l108.8 77.8c.3.2.6.6.6 1s-.1.8-.3 1.1c-.1.1-12.1 15-23 26.9-15.7 17-26.7 47-30.4 82.4-3 29-.1 56.2 6.6 63.2.6.6.6 1.5 0 2.1-.2.2-.6.4-1 .4z" fill="#25242e" />
            <path d="M458 108.4s-70.2-23-88.8 14.9C358 146 341.7 147.3 328 147c-18.6-.4-31.1 11.9-33.4 28.7-2.5 18.2 10.2 34.9 28.4 37.4 35.9-22 43.1-2.2 76.4-7.8 31.1-5.3 25.9-27.4 78.4-31.1 23.7-1.7-19.8-65.8-19.8-65.8z" fill="#56b1f0" />
            <path d="M472.5 14.2C438.9-3 361.8-11.1 343.1 28.7c-14.2 30.1 12.8 40.9 7.5 58.4-4.9 16.2 10.7 34.9 22.6 38.1 27.3-70.8 62.4-97.4 99.3-111z" fill="#25242e" />
            <path d="M527.7 91.5c-4.5-44.8-29.4-74.6-77.2-66.2-49.5 8.7-65.7 46.4-58.3 90-13.7-13-29.8 2.1-27.1 17.9 2.1 11.7 16.6 21.5 34.5 11.3 21.7 42.4 62.6 45.7 97.9 34.8 43.1-13.5 61.9-59.8 30.2-87.8z" fill="#eda38c" />
            <path d="M483.5 116.9c-10.8-9.2 4.2-19.1 10.9-9.7 5.2-16.1 22.1-6.8 11.7 4.7 3.8 1.3 8.2 11.3-1.6 16.1-13.1 6.3-21.8-4.7-21-11.1z" fill="#f05467" />
            <path d="M483.8 118.4c-6 0-11.7-1.2-16.2-3.5-.7-.4-1-1.3-.6-2s1.3-1 2-.6c9.9 5.3 26.8 3.9 37.8-3.1.7-.4 1.6-.2 2.1.5s.2 1.6-.5 2.1c-6.8 4.2-16 6.6-24.6 6.6zm-106.3 18.3c-.3 0-.6-.1-.9-.3-.7-.5-.8-1.5-.3-2.1l9.5-12.2c.5-.7 1.5-.8 2.1-.3.7.5.8 1.5.3 2.1l-9.5 12.2c-.3.4-.7.6-1.2.6z" fill="#25242e" />
            <path d="M392.3 115.2s-25.8-59 32.4-86.1c61-28.4 89.4 18.5 91.9 23.8-36.5 8-68.8-1.3-89.3-20.5 7.6 29-16.7 74-35 82.8" fill="#56b1f0" />
            <g fill="#25242e">
                <path d="M440.4 98.4c-.9 0-1.5-.7-1.5-1.5.3-9.5 6.3-19.8 18.8-20 .8 0 1.5.7 1.5 1.5s-.7 1.5-1.5 1.5c-7.7.1-15.5 5.4-15.9 17.1.1.8-.6 1.4-1.4 1.4z" />
                <path d="M459 88.8c1.6 7.5.3 14.1-3 14.8s-7.2-4.8-8.9-12.2c-.8-3.6-.9-6.9-.4-9.6.1-.4 7.6-3.3 8-2.8 1.8 2.2 3.4 5.7 4.3 9.8zm32.9-3.8c-.9 0-1.5-.7-1.5-1.5.3-9.5 6.3-19.8 18.8-20 .8 0 1.5.7 1.5 1.5s-.7 1.5-1.5 1.5c-7.7.1-15.5 5.4-15.9 17.1.1.8-.6 1.4-1.4 1.4z" />
                <path d="M510.5 75.4c1.6 7.5.3 14.1-3 14.8s-7.2-4.8-8.9-12.2c-.8-3.6-.9-6.9-.4-9.6.1-.4 7.6-3.3 8-2.8 1.8 2.2 3.4 5.7 4.3 9.8zm-9.7-41.2c-56.9-7.6-92 22-108.5 81-9.3-8.2-22-5.3-26.3 7.6 1-59.6 43.5-121.4 114.9-111.7 17.4 3.5 29.3 24.6 19.9 23.1z" />
            </g>
            <path d="M365.9 124.4c-.9 0-1.5-.7-1.5-1.5.6-36.1 15.7-70.4 40.5-91.7 20.9-18 47.2-25.4 76.1-21.4.8.1 1.4.9 1.3 1.7s-.9 1.4-1.7 1.3c-28-3.8-53.4 3.3-73.7 20.7-24.1 20.7-38.9 54.2-39.5 89.5 0 .7-.6 1.4-1.5 1.4z" fill="#fff" />
            <path d="M388 136.1c-.3 0-.7-.1-1-.4l-12-10.3c-.6-.5-.7-1.5-.2-2.1s1.5-.7 2.1-.2l12.1 10.3c.6.5.7 1.5.2 2.1-.3.4-.8.6-1.2.6zM285.9 360.3c-.3 0-.5-.1-.7-.2-.7-.4-1-1.3-.6-2 38.2-66.8 81.3-111.7 127.9-133.5 33.5-15.6 81.7-32.3 119.9-41.5 46.3-11.1 115-15.5 179.4 26.5.7.5.9 1.4.4 2.1s-1.4.9-2.1.4c-63.5-41.4-131.3-37-177-26.1-38.1 9.1-86 25.7-119.3 41.3-46 21.5-88.6 66-126.5 132.2-.3.5-.8.8-1.4.8z" fill="#25242e" />
            <path d="m440.2 292.8-36.3-62.3 9.2-4.6 38.1 63.3zm168-53.8-52.3-59-9.9 1.7 51.9 60.6z" fill="#25242e" />
            <path d="M1028.4 180.1c38.6-19.2 50.2-9.3 54.6-.8 9.2 17.6-15.6 34.7-27.6 40-19 8.3-30.3 1-32.8-5.6-3.9-10.2.3-23.2 25.1-35.2z" fill="#eda38c" />
            <path d="M1039.6 224.5c-4 0-7.1-.8-9.4-1.8-4.3-1.8-7.6-4.9-9-8.6-5.8-15.2 7.5-26.7 19.3-33.6l-12 1c-.8.1-1.6-.5-1.6-1.4-.1-.8.5-1.6 1.4-1.6l19.4-1.7c.7-.1 1.4.4 1.6 1.1s-.1 1.4-.8 1.7c-20.5 9.9-28.9 21.4-24.4 33.4 1.1 2.8 3.8 5.4 7.3 6.9 4.4 1.8 12 3 23.5-2.1.8-.3 1.6 0 2 .8.3.8 0 1.6-.8 2-6.6 2.9-12.1 3.9-16.5 3.9z" fill="#25242e" />
            <path d="M1022.6 153.9c38.7-19 50.2-9 54.7-.5 9.1 17.7-15.8 34.6-27.8 39.8-19 8.3-30.3.9-32.8-5.8-3.8-10.2.4-23.2 25.3-35.1z" fill="#eda38c" />
            <path d="M1033.8 198.5c-4 0-7.2-.8-9.6-1.8-4.3-1.8-7.6-5-8.9-8.6-5.7-15.2 7.6-26.7 19.5-33.6l-12.1 1c-.8.1-1.5-.6-1.6-1.4s.6-1.5 1.4-1.6l19.4-1.5c.7 0 1.4.4 1.6 1.1s-.2 1.4-.8 1.7c-20.5 9.8-29 21.3-24.5 33.3 1.1 2.8 3.8 5.4 7.3 6.9 4.4 1.9 12 3 23.5-2 11.2-4.9 29-17.5 28.8-30.8 0-.8.7-1.5 1.5-1.5s1.5.7 1.5 1.5c.2 16.6-22.1 29.8-30.6 33.6-6.6 2.7-12 3.7-16.4 3.7z" fill="#25242e" />
            <path d="M1018.1 122.2c40.5-14.8 50.9-3.6 54.4 5.4 7.2 18.6-19.4 32.7-31.9 36.6-19.8 6.2-30.2-2.3-32-9.3-2.7-10.6 2.8-23.1 28.9-32.2z" fill="#eda38c" />
            <path d="M1027.8 167.8c-5.7 0-9.9-1.4-12.7-3-4.1-2.3-7-5.7-7.9-9.5-4.8-18.8 16.6-29.4 29.9-34 .8-.3 1.6.1 1.9.9s-.1 1.6-.9 1.9c-21.4 7.5-31.1 18.1-27.9 30.4.7 2.9 3.2 5.8 6.5 7.6 4.1 2.3 11.6 4.3 23.6.6 10.4-3.2 28.2-12.9 31.5-24.9.2-.8 1-1.3 1.8-1 .8.2 1.3 1 1 1.8-3.6 13.3-22 23.4-33.5 27-5.2 1.6-9.6 2.2-13.3 2.2z" fill="#25242e" />
            <path d="M994.8 135.2s89-21.2 100.2-27.1c21.7-11.4 14.4-34.4-11.6-34.2-14.5.1-79.9 12.1-79.9 12.1-31.2 7.6-34 50.3-8.7 49.2zM529.4 530.1c20.9-13.4 50.8-34.3 65.9-52.1 15.2-17.8-3.7-37.1-27.1-23.6-23.5 13.5-43.7 27.5-46.4 29.5-15.2 10.7-16.5 61.7 7.6 46.2z" fill="#eda38c" />
            <path d="M478.5 488.6c-.4 0-.7-.1-1-.4-.6-.6-.6-1.5-.1-2.1 5.5-5.8 13.9-9.1 23.7-9.4 8.3-.2 16.6 1.9 20.8 5.2 4.5-3.1 23.5-16.2 45.5-28.9.7-.4 1.6-.2 2 .6s.2 1.6-.6 2c-24.5 14.1-45.4 28.8-46.2 29.4-.6.4-1.4.4-1.9-.1-2.7-2.7-10.6-5.4-19.6-5.2-8.9.2-16.6 3.2-21.5 8.4-.3.3-.7.5-1.1.5z" fill="#25242e" />
            <path d="M529.4 531.6c-.5 0-1-.2-1.3-.7-.4-.7-.2-1.6.5-2.1 17.7-11.4 49.8-33.3 65.6-51.8 5.9-7 6.8-14.7 2.2-20.2-4.7-5.7-15-8.2-27.4-1.1-24.5 14.1-45.4 28.8-46.2 29.4-.7.5-1.6.3-2.1-.4s-.3-1.6.4-2.1c.9-.6 21.8-15.4 46.5-29.5 13.9-8 25.7-4.9 31.2 1.8 5.5 6.6 4.6 16.1-2.2 24.1-16 18.8-48.4 40.9-66.3 52.4-.3.1-.6.2-.9.2z" fill="#25242e" />
            <path d="M438.7 216.8c2.2 14.2 10.2 23.2 22.3 30.8 26.2 16.5 64 8.8 80.3-15.5 8.8-13.2 14.4-28.4-1.9-45.3-8.7-8-22.3-4.4-23 2.1 14.2 5 20.1 21.3 9.5 35-12 15.6-39.7 21.4-55.3 9.4-8.6-6.6-13.9-11.6-15.2-24.8-6.7-3.4-16.9 2.7-16.7 8.3z" fill="#fff" />
            <path d="M492.5 257.9c-11.6 0-22.9-3.1-32.3-9-12.6-7.9-21.4-20.1-23-31.9v-.2c-.1-2.9 2-6 5.5-8.2s8.8-3.8 13.4-1.5c.5.2.8.7.8 1.3.4 10.3 7.6 19.3 14.5 23.6 15.8 9.8 42.3 5.4 53.3-9 4.7-6.1 6.2-13 4.3-19.4-1.8-6.1-6.6-11-13.1-13.3-.7-.2-1.1-.9-1-1.6.3-2.9 2.7-5.5 6.4-6.9 5.2-2 13.1-1.5 19 3.9 17.6 18.3 10.4 34.9 2.1 47.3-8 12-21.6 20.6-37.4 23.7-4 .8-8.3 1.2-12.5 1.2zm-52.3-41.2c1.6 10.9 9.8 22.2 21.6 29.7 12.1 7.6 27.7 10.3 42.8 7.4 15-2.9 27.9-11.1 35.4-22.4 8.1-12.2 14.3-26.8-1.7-43.5-4.9-4.5-11.5-4.9-15.9-3.3-2.1.8-3.6 2-4.2 3.4 6.8 2.8 11.7 8.1 13.7 14.8 2.2 7.4.5 15.2-4.8 22.1-11.9 15.5-40.3 20.3-57.3 9.8-7.4-4.6-15-14-15.9-25.1-3.3-1.2-7.2.1-9.7 1.7-2.4 1.4-4 3.6-4 5.4zM796.9 317c-.3 0-.7-.1-1-.4-.6-.5-.7-1.5-.2-2.1l23-26.8c.5-.6 1.5-.7 2.1-.2s.7 1.5.2 2.1l-23 26.8c-.3.4-.7.6-1.1.6z" fill="#25242e" />
            <path d="M221.2 489c35.6-28.1 92.6-34.5 162.4-25l26.4-4.2 27.8-80.3-151.9-20.8c-19.8 34.4-58.4 98.5-64.7 130.3z" fill="#fff" />
            <path d="M221.2 490.5c-.3 0-.5-.1-.7-.2-.6-.3-.9-1-.7-1.6 5.8-29.2 37.8-84.1 59-120.5 2.1-3.6 4.1-7 5.9-10.2.4-.7 1.3-1 2-.5.7.4 1 1.3.5 2-1.8 3.2-3.8 6.6-5.9 10.2-20.1 34.5-49.9 85.7-57.7 115.3 35.5-27.6 106.9-31.2 159.9-22.6l25.3-4 22.5-64.8c.2-1 2.5-13-2.1-28-.2-.8.2-1.6 1-1.9.8-.2 1.6.2 1.9 1 5.1 16.5 2.3 29.1 2.2 29.7v.2l-22.8 65.8c-.2.5-.6.9-1.2 1l-26.4 4.2h-.5c-54.2-8.9-127.7-4.9-161.1 24.7-.4.1-.8.2-1.1.2zm182.7-165.2c-.4 0-.8-.1-1.1-.4-.4-.4-37-36.4-59.8-35.8-4.5.1-8.1 1.7-10.9 4.7-.6.6-1.5.7-2.1.1s-.7-1.5-.1-2.1c3.3-3.6 7.7-5.6 13-5.7 10.2-.3 23.7 5.9 40.3 18.2 12.2 9.1 21.6 18.4 21.7 18.5.6.6.6 1.5 0 2.1-.2.2-.6.4-1 .4zm245.5-84.8c-.9 0-1.5-.7-1.5-1.6l2.7-54.5c0-.8.8-1.5 1.6-1.4.8 0 1.5.7 1.4 1.6l-2.7 54.5c0 .8-.7 1.4-1.5 1.4z" fill="#25242e" />
            <path d="M580.7 762.1c-.4 0-.8-.2-1.1-.5-.6-.6-.5-1.6.1-2.1l82.2-74.2c.6-.6 1.6-.5 2.1.1.6.6.5 1.6-.1 2.1l-82.2 74.2c-.3.3-.7.4-1 .4zm-60.8-23.2c-.4 0-.8-.2-1.1-.5-.6-.6-.5-1.6.1-2.1l114.4-101.9c.6-.6 1.6-.5 2.1.1.6.6.5 1.6-.1 2.1L520.9 738.5c-.3.2-.7.4-1 .4z" fill="#fff" />
            <path d="M994.8 136.7c-.7 0-1.3-.5-1.5-1.2-.2-.8.3-1.6 1.1-1.8.9-.2 89-21.3 99.9-27 .7-.4 1.6-.1 2 .6s.1 1.6-.6 2c-11.2 5.9-96.9 26.4-100.6 27.2 0 .2-.2.2-.3.2z" fill="#25242e" />
            <path d="M957.1 164.2c15.6-19.3 39.5-46.8 58.8-60s36.5 7.6 20.6 29.5-32.1 40.5-34.3 43c-12.3 14-63.1 9.9-45.1-12.5z" fill="#eda38c" />
            <path d="M1002.3 178.2c-.4 0-.7-.1-1-.4-.6-.5-.7-1.5-.1-2.1.7-.8 17.6-20 34.2-42.8 8.4-11.6 7-22.1 1.8-27.4-5-5.1-12.8-5.1-20.4 0-20.1 13.7-45.3 43.3-58.5 59.7-.5.6-1.5.7-2.1.2s-.7-1.5-.2-2.1c13.3-16.5 38.8-46.4 59.2-60.3 8.7-5.9 18.2-5.8 24.2.4s7.9 18.3-1.6 31.3c-16.7 23-33.6 42.3-34.3 43.1-.4.2-.8.4-1.2.4z" fill="#25242e" />
            <path d="M994.4 220.9c-.5 0-.9-.2-1.2-.6-.5-.7-.4-1.6.3-2.1 5.7-4.4 9.5-11.6 10.7-20.5 1.2-9-.7-17.1-3.1-20.1-.4-.6-.4-1.4.1-1.9.7-.8 17.6-20 34.2-42.8.5-.7 1.4-.8 2.1-.3s.8 1.4.3 2.1c-14.9 20.5-30 38.1-33.6 42.2 2.8 4.6 4 13 3 21.3-1.3 9.7-5.5 17.7-11.8 22.5-.4.1-.7.2-1 .2zM632.5 1288.6l-135.7-2.7c-.8 0-1.5-.7-1.5-1.5s.7-1.5 1.5-1.5l135.7 2.7c.8 0 1.5.7 1.5 1.5s-.7 1.5-1.5 1.5zm-459.7-24.3c-.1 0-.3 0-.4-.1-24.3-6.5-48.1-20.7-67-40-18.5-18.8-31.2-41.2-35.8-63-.2-.8.3-1.6 1.2-1.8.8-.2 1.6.3 1.8 1.2 4.5 21.3 16.9 43.1 35 61.5 18.5 18.9 41.9 32.8 65.6 39.2.8.2 1.3 1 1.1 1.8-.2.7-.8 1.2-1.5 1.2z" fill="#25242e" />
        </svg>
    </g>
    <g transform="translate(943.0 330.0) rotate(0.0 177.5 37.0) scale(1.0142393490583288 1.0250017314218438)">
        <svg width="350.016" height="72.195" viewBox="0 0 350.016 72.195">
            <path d="M251.463 35.562c-.361-3.951 3.216-9.249 8.33-14.878 8.523-9.381 22.467-19.07 37.998-20.479 33.489-3.039 52.224 28.629 52.224 28.629s-18.276 25.761-48.7 28.051c-14.92 1.123-28.726-2.559-37.716-7.398-7.731-4.162-11.692-9.054-12.136-13.925z" fill="#24968b" />
            <path d="m4.452 61.672 255.341-40.988c10.003 2.994 17.628 19.134 3.806 28.803-.345.045-5.368.769-5.709.8L5.753 72.174A5.295 5.295 0 0 1 .02 67.357c-.241-2.776 1.726-5.241 4.432-5.685z" fill="#25242e" />
        </svg>
    </g>
    <g transform="translate(625.0 626.0) rotate(0.0 152.5 121.0) scale(1.0003903162217391 1.0004051227356534)">
        <svg width="304.881" height="241.902" viewBox="0 0 304.881 241.902">
            <path d="M22.56 139.265c.814-20.178-26.407-37.621-20.115-63.805C11.96 35.864 67.912 10.549 122.061 3.712c71.066-8.973 150.355 9.253 172.168 56.424 34.986 75.659-35.238 143.059-127.343 168.908-85.93 24.116-143.064 7.317-154.44-26.808-8.581-25.742 9.293-42.605 10.114-62.971z" fill="#fff" />
            <path d="M92.782 241.912c-11.268 0-21.776-.983-31.376-2.962-26.521-5.467-44.415-18.337-50.382-36.239-5.48-16.44-.572-29.198 4.174-41.536 2.86-7.434 5.561-14.454 5.864-21.97.335-8.306-4.457-16.326-9.53-24.818C4.851 103.205-2.72 90.532.986 75.11 10.851 34.058 68.81 8.923 121.873 2.224c69.13-8.729 150.997 8.146 173.717 57.282 12.236 26.461 12.46 52.846.668 78.423-18.692 40.539-66.904 75.142-128.967 92.56-27.025 7.584-52.248 11.423-74.509 11.423zM24.058 139.326c-.323 8.01-3.11 15.255-6.062 22.926-4.556 11.844-9.268 24.091-4.128 39.51 5.616 16.845 22.713 29.009 48.142 34.25 28.102 5.792 64.226 2.884 104.47-8.411 61.228-17.184 108.724-51.176 127.053-90.927 11.408-24.742 11.184-50.281-.666-75.907-10.051-21.735-33.108-38.492-66.679-48.458C195.355 3.155 158.441.63 122.249 5.201 70.209 11.77 13.434 36.151 3.903 75.811c-3.42 14.232 3.506 25.825 10.204 37.036 5.308 8.887 10.323 17.281 9.951 26.479z" fill="#25242e" />
            <path d="M120.622 94.338c-2.634 0-4.786-.714-6.374-1.518-5.004-2.539-7.981-7.697-7.975-13.806.01-7.477 3.176-13.509 5.487-17.913l.815-1.553a120.247 120.247 0 0 0-20.622 13.621c-5.335 4.384-13.211 3.61-17.594-1.723-4.382-5.334-3.611-13.211 1.723-17.594 14.862-12.211 32.468-21.549 50.914-27.004 8.001-2.365 13.188.259 16.13 2.876 4.395 3.911 7.357 11.39 2.495 20.652l-4.912 9.359c3.569-1.178 7.951-2.009 12.749-1.11 5.938 1.11 11.146 4.99 13.935 10.379 2.517 4.864 2.693 10.412.482 15.221-2.882 6.273-10.305 9.021-16.578 6.137a12.444 12.444 0 0 1-5.873-5.596l-17.821 7.979c-2.591 1.16-4.932 1.593-6.981 1.593z" fill="#f05467" />
            <path d="M97.498 209.989c-3.956 0-7.633-1.885-10.165-4.155-1.31-1.176-2.61-2.599-3.987-4.104-1.231-1.347-3.517-3.847-5.147-5.197a12.502 12.502 0 0 1-12.559-7.276c-2.856-6.285-.076-13.695 6.21-16.552 4.715-2.143 9.172-1.98 13.201-.617a74.346 74.346 0 0 1 .049-5.469c.519-10.879 7.826-19.469 17.375-20.423 3.587-.362 9.665.147 15.428 5.839 2.747-2.896 6.054-4.917 9.762-5.906 6.672-1.779 13.521 2.184 15.301 8.854 1.627 6.097-1.545 12.346-7.197 14.733a7.755 7.755 0 0 0-.281.629c-.304.768-.611 1.726-.938 2.739-.84 2.613-1.885 5.865-3.868 9.122-3.808 6.253-11.171 8.813-17.507 6.092a13.391 13.391 0 0 1-2.205-1.202c.09 3.451-.008 7.086-.533 10.856-.715 5.172-3.486 8.109-5.685 9.661-2.39 1.693-4.872 2.376-7.254 2.376zm36.623-39.708-.008.002.008-.002z" fill="#f0e760" />
            <path d="M253.027 150.011a12.467 12.467 0 0 1-9.339-4.187 12.561 12.561 0 0 1-1.786-2.598 12.506 12.506 0 0 1-5.164-4.576c-8.543 2.775-16.95-.381-20.392-7.852-1.431-3.108-3.021-9.435 2.375-16.934l.014-.02c-4.86 2.479-10.96 1.551-14.849-2.649-4.69-5.065-4.385-12.975.681-17.664a78.596 78.596 0 0 1 35.45-18.824c10.535-2.461 16.288 2.132 18.78 5.091 2.312 2.743 5.71 8.726 2.474 17.939-1.775 5.054-4.408 9.38-7.326 13.243 4.309 2.543 6.907 6.988 7.322 12.003 3.365 3.054 5.29 7.448 5.285 12.076-.004 4.541-1.905 8.836-5.216 11.785a12.447 12.447 0 0 1-8.309 3.167z" fill="#24968b" />
        </svg>
    </g>
    <g transform="translate(1139.0 288.0) rotate(0.0 313.5 284.0) scale(1.0004132488539923 1.0002852926362802)">
        <svg width="626.741" height="567.838" viewBox="0 0 626.741 567.838">
            <path d="M20.582 490.506C-27.256 405.127-3.32 198.991 217.868 65.101s369.245-33.247 399.616 52.192-19.016 181.978-75.301 237.79c-42.499 42.142-99.337 59.297-130.74 49.019s-52.538-43.852-28.091-98.718c32.261-72.404-40.507-107.314-115.215-62.707-59.722 35.659-77.491 93.345-77.798 122.016-.366 34.225 32.314 56.363 44.248 86.422 16.378 41.252-5.34 87.786-56.787 109.954-30.877 13.305-109.38 14.816-157.218-70.563z" fill="#f05467" />
            <path d="M395.13 486.105c16.453 28.971 2.582 62.814-16.827 73.683-22.585 12.648-58.924 4.295-73.406-24.3-13.91-27.467-7.026-58.339 18.628-72.81 25.654-14.472 56.4-3.345 71.605 23.427z" fill="#f0e760" />
        </svg>
    </g>
    <g transform="translate(588.0 808.0) rotate(-84.86914650776875 49.0 -66.5) scale(1.0831721470019342 -1.0875875998658915)">
        <svg width="90.475" height="122.289" viewBox="0 0 90.475 122.289">
            <path d="M3.299 65.596C18.903 46.25 42.832 18.792 62.141 5.616s36.473 7.6 20.576 29.504-32.055 40.462-34.252 42.954c3.596 4.907 10.274 26.939-7.883 42.715-18.729 4.048-50.992-38.198-37.283-55.193z" fill="#eda38c" />
            <g fill="#25242e">
                <path d="M40.583 122.289a1.501 1.501 0 0 1-.909-2.695c5.73-4.356 9.519-11.643 10.667-20.517 1.167-9.009-.705-17.07-3.058-20.081a1.502 1.502 0 0 1 .057-1.916c.709-.804 17.558-19.963 34.163-42.842A1.5 1.5 0 1 1 83.931 36C69.037 56.524 53.94 74.075 50.361 78.184c2.81 4.578 4.021 13.047 2.955 21.279-1.252 9.676-5.453 17.673-11.827 22.52-.27.206-.59.306-.906.306z" />
                <path d="M48.465 79.573a1.5 1.5 0 0 1-1.125-2.492c.709-.804 17.558-19.963 34.163-42.842 8.406-11.582 6.979-22.108 1.836-27.403-4.997-5.144-12.796-5.138-20.354.02C42.897 20.563 17.699 50.132 4.466 66.537a1.5 1.5 0 1 1-2.335-1.882C15.467 48.12 40.888 18.303 61.295 4.377c8.709-5.943 18.207-5.8 24.197.369 6.018 6.195 7.869 18.263-1.561 31.255C67.244 58.994 50.304 78.257 49.59 79.065c-.296.336-.71.508-1.125.508z" />
            </g>
        </svg>
    </g>
    <g transform="translate(1050.0 348.0) rotate(0.0 48.0 65.5) scale(1.0610665929814866 1.0712328991160285)">
        <svg width="90.475" height="122.289" viewBox="0 0 90.475 122.289">
            <path d="M3.299 65.596C18.903 46.25 42.832 18.792 62.141 5.616s36.473 7.6 20.576 29.504-32.055 40.462-34.252 42.954c3.596 4.907 10.274 26.939-7.883 42.715-18.729 4.048-50.992-38.198-37.283-55.193z" fill="#eda38c" />
            <g fill="#25242e">
                <path d="M40.583 122.289a1.501 1.501 0 0 1-.909-2.695c5.73-4.356 9.519-11.643 10.667-20.517 1.167-9.009-.705-17.07-3.058-20.081a1.502 1.502 0 0 1 .057-1.916c.709-.804 17.558-19.963 34.163-42.842A1.5 1.5 0 1 1 83.931 36C69.037 56.524 53.94 74.075 50.361 78.184c2.81 4.578 4.021 13.047 2.955 21.279-1.252 9.676-5.453 17.673-11.827 22.52-.27.206-.59.306-.906.306z" />
                <path d="M48.465 79.573a1.5 1.5 0 0 1-1.125-2.492c.709-.804 17.558-19.963 34.163-42.842 8.406-11.582 6.979-22.108 1.836-27.403-4.997-5.144-12.796-5.138-20.354.02C42.897 20.563 17.699 50.132 4.466 66.537a1.5 1.5 0 1 1-2.335-1.882C15.467 48.12 40.888 18.303 61.295 4.377c8.709-5.943 18.207-5.8 24.197.369 6.018 6.195 7.869 18.263-1.561 31.255C67.244 58.994 50.304 78.257 49.59 79.065c-.296.336-.71.508-1.125.508z" />
            </g>
        </svg>
    </g>
</svg>